<svg width="288" height="149" viewBox="0 0 288 149" fill="none" xmlns="http://www.w3.org/2000/svg">
<g clip-path="url(#clip0_10602_965)">
<path d="M154.905 145C187.99 145 214.81 143.62 214.81 141.918C214.81 140.215 187.99 138.835 154.905 138.835C121.82 138.835 95 140.215 95 141.918C95 143.62 121.82 145 154.905 145Z" fill="#E6E6E6"/>
<path d="M182.766 78.6331L179.322 76.9199L182.192 69.2105L182.948 65.3225C183.047 64.8174 183.276 64.3468 183.615 63.9577C183.953 63.5686 184.388 63.2747 184.876 63.1053C185.365 62.9359 185.889 62.897 186.397 62.9924C186.906 63.0878 187.38 63.3143 187.772 63.6491C188.354 64.1453 188.72 64.847 188.791 65.606C188.863 66.3651 188.635 67.1222 188.157 67.7175L185.349 71.2092L182.766 78.6331Z" fill="#FFB9B9"/>
<path d="M183.915 77.776L183.28 79.754L180.429 88.6396C180.15 89.5107 179.624 90.2833 178.915 90.8645C178.205 91.4458 177.343 91.8111 176.43 91.9165C175.517 92.022 174.593 91.8633 173.768 91.4593C172.944 91.0553 172.254 90.4232 171.782 89.6389L162.54 73.8816C162.392 73.636 162.266 73.3782 162.163 73.111C161.717 71.9449 161.739 70.6525 162.225 69.5023C162.712 68.3521 163.625 67.4326 164.775 66.9349C165.925 66.4371 167.224 66.3995 168.402 66.8297C169.579 67.2598 170.544 68.1248 171.097 69.2448L176.739 81.2028L179.321 75.4923L183.915 77.776Z" fill="#E6E6E6"/>
<path d="M182.585 135.173L176.271 135.744L172.826 110.902C161.474 112.802 150.763 113.411 141.499 111.113C140.716 110.921 139.982 110.571 139.341 110.083C138.701 109.596 138.169 108.982 137.779 108.28C137.388 107.578 137.148 106.804 137.073 106.005C136.998 105.207 137.089 104.402 137.342 103.64C138.45 100.348 140.404 96.82 142.69 93.1992L157.902 98.6244L158.476 100.909L174.701 98.8654C175.52 98.7622 176.352 98.8297 177.144 99.0636C177.936 99.2975 178.67 99.6927 179.3 100.224C179.93 100.755 180.442 101.411 180.803 102.15C181.165 102.889 181.368 103.694 181.4 104.515L182.585 135.173Z" fill="#2F2E41"/>
<path d="M189.461 139.987C189.522 139.562 189.459 139.129 189.28 138.738C189.101 138.348 188.813 138.016 188.451 137.784L181.969 134.619L177.083 135.233L175.928 139.349C175.88 139.642 175.891 139.942 175.963 140.231C176.034 140.52 176.164 140.791 176.344 141.028C176.525 141.265 176.751 141.463 177.011 141.61C177.271 141.757 177.558 141.85 177.855 141.884L186.973 141.903C187.557 141.969 188.144 141.805 188.608 141.447C189.073 141.09 189.379 140.566 189.461 139.987Z" fill="#2F2E41"/>
<path d="M184.18 131.997L177.866 132.568L174.422 107.727C163.069 109.627 152.358 110.235 143.094 107.937C142.311 107.745 141.577 107.395 140.937 106.907C140.296 106.42 139.764 105.806 139.374 105.104C138.984 104.403 138.743 103.628 138.668 102.83C138.593 102.031 138.684 101.226 138.937 100.464C140.046 97.172 141.999 93.6442 144.286 90.0234L159.497 95.4486L160.071 97.7328L176.296 95.6896C177.116 95.5864 177.947 95.6539 178.739 95.8878C179.531 96.1217 180.265 96.5169 180.895 97.0482C181.525 97.5795 182.037 98.2354 182.398 98.9742C182.76 99.713 182.963 100.518 182.995 101.34L184.18 131.997Z" fill="#2F2E41"/>
<path d="M191.056 136.81C191.117 136.385 191.054 135.952 190.875 135.561C190.696 135.171 190.408 134.84 190.046 134.607L183.564 131.442L178.677 132.056L177.523 136.172C177.474 136.466 177.486 136.766 177.558 137.054C177.629 137.343 177.759 137.614 177.939 137.851C178.119 138.088 178.346 138.286 178.606 138.434C178.865 138.581 179.152 138.674 179.449 138.707L188.568 138.727C189.152 138.792 189.738 138.628 190.203 138.271C190.667 137.913 190.974 137.389 191.056 136.81Z" fill="#2F2E41"/>
<path d="M172.413 72.0351L163.515 70.893L166.959 60.3281H175.569L172.413 72.0351Z" fill="#E6A7A7"/>
<path d="M172.699 64.0399C176.979 64.0399 180.449 60.5883 180.449 56.3305C180.449 52.0727 176.979 48.6211 172.699 48.6211C168.42 48.6211 164.95 52.0727 164.95 56.3305C164.95 60.5883 168.42 64.0399 172.699 64.0399Z" fill="#FFB9B9"/>
<path d="M174.834 82.6881C174.382 83.9351 173.728 85.0997 172.897 86.1355C171.713 87.5819 170.289 88.8171 168.688 89.7884C168.409 89.9682 168.12 90.1403 167.821 90.3099L166.111 91.7587L160.072 96.8758L143.425 90.595C147.097 82.4775 151.677 76.0605 156.927 70.892C158.017 69.3006 159.572 68.0801 161.381 67.3948C163.191 66.7095 165.168 66.5924 167.046 67.0593L173.274 68.6083C175.49 73.8102 176.313 78.5934 174.834 82.6881Z" fill="#E6E6E6"/>
<path d="M177.567 70.9929C177.454 71.1032 177.389 71.2534 177.387 71.4109C177.384 71.5684 177.445 71.7204 177.554 71.8339C177.746 71.9164 181.544 76.2218 181.777 75.9254C181.856 75.9263 181.935 75.9113 182.009 75.8815C182.082 75.8517 182.149 75.8076 182.205 75.7517L193.792 64.2747C193.855 64.2121 193.904 64.1361 193.934 64.0524C193.964 63.9686 193.975 63.8792 193.965 63.7908C194.278 63.4993 189.292 60.5603 189.14 60.4003C189.026 60.3257 188.89 60.2923 188.754 60.3056C188.618 60.3189 188.491 60.3781 188.394 60.4734L177.567 70.9929Z" fill="#3F3D56"/>
<path d="M192.799 63.6683L192.327 63.3692C192.374 63.4573 192.391 63.5585 192.373 63.6568C192.356 63.7551 192.307 63.845 192.233 63.9123C192.159 63.9795 192.064 64.0203 191.964 64.0282C191.864 64.0361 191.764 64.0107 191.681 63.956L188.629 61.8692C188.561 61.8211 188.508 61.7552 188.475 61.6787C188.442 61.6021 188.431 61.5181 188.443 61.4358C188.456 61.3534 188.491 61.2762 188.544 61.2125C188.598 61.1488 188.669 61.1012 188.748 61.075C188.627 61.0342 188.432 60.7901 188.301 60.9438L178.037 70.9789C177.671 71.156 181.766 74.6865 181.769 74.8252C182.074 75.1642 192.603 63.9283 192.827 63.9206C192.844 63.9033 192.857 63.8824 192.865 63.8594C192.873 63.8365 192.876 63.812 192.873 63.7878C192.871 63.7636 192.863 63.7403 192.85 63.7196C192.837 63.6989 192.819 63.6814 192.799 63.6683Z" fill="white"/>
<path d="M180.952 68.7629L184.101 71.7163L191.59 64.3548L187.789 61.8936L180.952 68.7629Z" fill="#5199FF"/>
<path d="M191.299 66.1715C191.32 66.1912 191.347 66.2022 191.376 66.2022C191.405 66.2022 191.432 66.1912 191.453 66.1715C191.488 66.0762 192.287 65.497 192.108 65.3666C192.087 65.3469 192.06 65.3359 192.031 65.3359C192.002 65.3359 191.975 65.3469 191.954 65.3666C191.92 65.462 191.12 66.0412 191.299 66.1715Z" fill="#E6E6E6"/>
<path d="M190.35 67.2691C190.385 67.1737 191.184 66.5945 191.005 66.4641C190.872 66.2877 190.294 67.0795 190.196 67.1157C190.094 67.2139 190.252 67.3696 190.35 67.2691Z" fill="#E6E6E6"/>
<path d="M181.76 71.298C181.774 72.2474 180.275 72.2475 180.289 71.298C180.275 70.3486 181.774 70.3486 181.76 71.298Z" fill="#5199FF"/>
<path opacity="0.2" d="M172.897 86.1347C171.713 87.581 170.29 88.8163 168.688 89.7876C168.41 89.9674 168.12 90.1395 167.821 90.309L166.111 91.7579C162.719 87.3215 162.91 73.8428 162.91 73.8428L168.074 74.3565L172.897 86.1347Z" fill="black"/>
<path d="M183.032 82.5998L179.588 80.8866L182.458 73.1772L183.214 69.2893C183.313 68.7842 183.542 68.3136 183.881 67.9245C184.219 67.5354 184.654 67.2415 185.143 67.0721C185.631 66.9027 186.155 66.8638 186.664 66.9592C187.172 67.0546 187.646 67.2811 188.038 67.6159C188.62 68.1121 188.986 68.8138 189.057 69.5728C189.129 70.3319 188.902 71.089 188.423 71.6843L185.615 75.176L183.032 82.5998Z" fill="#FFB9B9"/>
<path d="M179.588 79.4584L184.18 81.7427L180.695 92.6061C180.445 93.3862 179.996 94.0888 179.393 94.6456C178.789 95.2025 178.051 95.5948 177.251 95.7844C176.263 96.0183 175.227 95.9332 174.291 95.5416C173.356 95.15 172.57 94.4721 172.048 93.6063L162.807 77.848C162.152 76.7622 161.95 75.4646 162.243 74.2325C162.537 73.0003 163.304 71.9313 164.379 71.2538C164.957 70.8894 165.606 70.6502 166.284 70.5518C166.961 70.4535 167.652 70.4981 168.311 70.6829C168.97 70.8676 169.582 71.1883 170.108 71.6241C170.634 72.0599 171.062 72.601 171.364 73.2122L177.005 85.1691L179.588 79.4584Z" fill="#E6E6E6"/>
<path d="M175.617 53.3281C176.248 53.852 176.961 54.2705 177.727 54.5672C178.505 54.827 179.408 54.8326 180.103 54.3975C180.922 53.8846 181.295 52.8426 181.211 51.8835C181.128 50.9244 180.655 50.0394 180.09 49.2577C179.049 47.8183 177.682 46.6442 176.098 45.8311C174.515 45.018 172.761 44.5891 170.979 44.5793C169.197 44.5695 167.438 44.9791 165.846 45.7747C164.253 46.5703 162.873 47.7294 161.816 49.1572C161.091 50.1373 160.517 51.2754 160.454 52.4906C160.343 54.6324 161.816 56.6317 161.659 58.7706C161.526 60.5796 160.22 62.1293 158.675 63.0912C157.129 64.053 155.342 64.5407 153.614 65.1184C151.886 65.696 150.138 66.4088 148.859 67.7013C147.58 68.9938 146.874 70.9995 147.576 72.6735C148.153 74.049 149.524 74.9239 150.899 75.5163C154.585 77.0866 158.726 77.2413 162.52 75.9502C163.919 75.4678 165.447 74.5024 165.468 73.0296C165.477 72.3904 165.188 71.7903 165.015 71.1748C164.841 70.5593 164.808 69.8251 165.244 69.3551C165.784 68.7721 166.782 68.9064 167.428 69.3713C168.073 69.8363 168.493 70.5415 169.026 71.1313C170.037 72.2512 171.57 72.9666 173.068 72.7557C174.566 72.5447 175.921 71.2749 175.983 69.7708C176.089 67.1869 172.835 65.5691 172.481 63.0071C172.245 61.296 173.365 59.7305 174.335 58.2983C175.306 56.8661 176.208 55.0716 175.529 53.4821" fill="#2F2E41"/>
<path d="M133.861 113.788C132.796 113.788 131.747 113.525 130.809 113.024C129.87 112.522 129.071 111.798 128.482 110.914C127.893 110.031 127.533 109.017 127.434 107.961C127.335 106.906 127.499 105.843 127.913 104.866L128.865 105.267C128.449 106.247 128.334 107.328 128.535 108.374C128.735 109.419 129.241 110.382 129.99 111.142C130.739 111.902 131.697 112.424 132.744 112.644C133.79 112.864 134.879 112.771 135.872 112.378L136.256 113.332C135.494 113.635 134.681 113.79 133.861 113.788Z" fill="#3F3D56"/>
<path d="M127.146 107.068C126.42 107.045 125.73 106.741 125.225 106.222C124.719 105.702 124.436 105.007 124.436 104.284V58.1734C124.679 57.9309 124.973 57.7434 125.295 57.6237C125.618 57.5041 125.963 57.455 126.307 57.4799C126.65 57.5048 126.984 57.6031 127.286 57.7681C127.588 57.933 127.851 58.1608 128.056 58.4358C141.256 76.1922 141.837 92.115 129.331 106.136C129.058 106.441 128.721 106.683 128.343 106.844C127.965 107.005 127.557 107.082 127.146 107.068Z" fill="#5199FF"/>
<path d="M124.049 104.284V58.3018C124.284 58.302 124.515 58.3647 124.717 58.4833C124.92 58.6019 125.087 58.7721 125.202 58.9764C131.209 69.703 135.665 78.2021 135.543 85.9046C135.434 92.7832 130.577 95.959 126.34 102.997C126.102 103.39 125.766 103.715 125.365 103.941C124.963 104.166 124.51 104.285 124.049 104.284Z" fill="#3F3D56"/>
<path d="M143.802 113.66H135.797V111.605L142.253 109.807L143.802 113.66Z" fill="#3F3D56"/>
<path d="M140.962 111.605H162.135C162.135 112.764 161.673 113.874 160.85 114.693C160.026 115.512 158.91 115.972 157.746 115.972H145.352C144.187 115.972 143.071 115.512 142.248 114.693C141.424 113.874 140.962 112.764 140.962 111.605Z" fill="#3F3D56"/>
<path d="M153.872 115.458H151.032V117.77H153.872V115.458Z" fill="#3F3D56"/>
<path d="M155.163 117.257H149.999V124.193H155.163V117.257Z" fill="#3F3D56"/>
<path d="M154.776 127.917H150.386V137.165H154.776V127.917Z" fill="#3F3D56"/>
<path d="M157.1 128.944H148.062L149.354 123.293H157.1V128.944Z" fill="#3F3D56"/>
<path d="M149.095 128.431L130.762 136.908L130.504 138.192H127.922L128.045 136.227C128.086 135.574 128.298 134.943 128.66 134.397C129.022 133.85 129.521 133.407 130.108 133.112L149.612 123.293L149.095 128.431Z" fill="#3F3D56"/>
<path d="M156.067 128.431L175.433 136.908L175.691 138.192H178.273L178.15 136.227C178.109 135.574 177.897 134.943 177.535 134.397C177.173 133.85 176.674 133.407 176.087 133.112L157.1 123.293L156.067 128.431Z" fill="#3F3D56"/>
<path d="M128.955 143.587C130.524 143.587 131.795 142.322 131.795 140.761C131.795 139.201 130.524 137.936 128.955 137.936C127.386 137.936 126.115 139.201 126.115 140.761C126.115 142.322 127.386 143.587 128.955 143.587Z" fill="#3F3D56"/>
<path d="M161.748 143.587C163.316 143.587 164.588 142.322 164.588 140.761C164.588 139.201 163.316 137.936 161.748 137.936C160.179 137.936 158.907 139.201 158.907 140.761C158.907 142.322 160.179 143.587 161.748 143.587Z" fill="#3F3D56"/>
<path d="M176.982 143.587C178.551 143.587 179.822 142.322 179.822 140.761C179.822 139.201 178.551 137.936 176.982 137.936C175.413 137.936 174.142 139.201 174.142 140.761C174.142 142.322 175.413 143.587 176.982 143.587Z" fill="#3F3D56"/>
<path d="M162.78 138.964L160.715 138.707L160.198 136.652L153.227 128.174L156.325 125.092L161.84 133.431C162.453 134.359 162.78 135.445 162.78 136.556V138.964Z" fill="#3F3D56"/>
<path d="M171.261 112.247H137C136.554 112.247 136.112 112.16 135.7 111.99C135.288 111.82 134.913 111.571 134.598 111.257C134.282 110.944 134.032 110.571 133.861 110.161C133.69 109.751 133.603 109.311 133.603 108.867V107.035C133.603 106.259 133.776 105.492 134.108 104.79C134.441 104.088 134.926 103.467 135.527 102.973C141.311 98.2177 145.992 94.1743 152.452 94.4965C158.033 94.7749 165.089 101.763 171.173 103.918C172.196 104.285 173.08 104.957 173.704 105.843C174.328 106.729 174.661 107.786 174.658 108.867C174.658 109.311 174.57 109.751 174.4 110.161C174.229 110.571 173.979 110.944 173.663 111.257C173.348 111.571 172.973 111.82 172.561 111.99C172.149 112.16 171.707 112.247 171.261 112.247Z" fill="#2871D8"/>
<path d="M316.637 85.5914H220.205C219.731 85.5909 219.277 85.4035 218.943 85.0704C218.608 84.7374 218.419 84.2858 218.419 83.8148V1.7766C218.42 1.30558 218.608 0.854021 218.943 0.520965C219.277 0.187909 219.731 0.0005534 220.205 0H316.637C317.11 0.000553401 317.564 0.187909 317.899 0.520965C318.234 0.854022 318.422 1.30558 318.423 1.7766V83.8148C318.422 84.2858 318.234 84.7374 317.899 85.0705C317.564 85.4035 317.11 85.5909 316.637 85.5914ZM220.205 0.710641C219.921 0.710949 219.648 0.823351 219.447 1.02319C219.247 1.22303 219.134 1.49398 219.133 1.7766V83.8148C219.134 84.0974 219.247 84.3684 219.447 84.5682C219.648 84.7681 219.921 84.8805 220.205 84.8808H316.637C316.921 84.8805 317.193 84.7681 317.394 84.5682C317.595 84.3684 317.708 84.0974 317.708 83.8148V1.7766C317.708 1.49398 317.595 1.22303 317.394 1.02319C317.193 0.823355 316.921 0.71095 316.637 0.710641H220.205Z" fill="#E6E6E6"/>
<path d="M235.188 78.2395C239.206 78.2395 242.463 74.9994 242.463 71.0025C242.463 67.0057 239.206 63.7656 235.188 63.7656C231.171 63.7656 227.914 67.0057 227.914 71.0025C227.914 74.9994 231.171 78.2395 235.188 78.2395Z" fill="#E6E6E6"/>
<path d="M251.989 66.1777C251.667 66.1777 251.359 66.3048 251.131 66.531C250.904 66.7572 250.776 67.064 250.776 67.3839C250.776 67.7038 250.904 68.0106 251.131 68.2367C251.359 68.4629 251.667 68.59 251.989 68.59H309.144C309.466 68.59 309.774 68.4629 310.001 68.2367C310.229 68.0106 310.357 67.7038 310.357 67.3839C310.357 67.064 310.229 66.7572 310.001 66.531C309.774 66.3048 309.466 66.1777 309.144 66.1777H251.989Z" fill="#E6E6E6"/>
<path d="M251.989 73.415C251.829 73.4148 251.671 73.4458 251.524 73.5063C251.377 73.5669 251.243 73.6557 251.13 73.7677C251.017 73.8797 250.928 74.0128 250.867 74.1592C250.806 74.3057 250.774 74.4626 250.774 74.6212C250.774 74.7797 250.806 74.9367 250.867 75.0832C250.928 75.2296 251.017 75.3627 251.13 75.4747C251.243 75.5867 251.377 75.6755 251.524 75.736C251.671 75.7965 251.829 75.8276 251.989 75.8273H276.583C276.904 75.8269 277.212 75.6996 277.439 75.4734C277.666 75.2473 277.793 74.9408 277.793 74.6212C277.793 74.3016 277.666 73.9951 277.439 73.7689C277.212 73.5428 276.904 73.4155 276.583 73.415H251.989Z" fill="#E6E6E6"/>
<path d="M339.548 56.9773H243.116C242.642 56.9768 242.189 56.7894 241.854 56.4564C241.519 56.1233 241.331 55.6718 241.33 55.2007V13.0989C241.331 12.6279 241.519 12.1763 241.854 11.8432C242.188 11.5102 242.642 11.3228 243.116 11.3223H339.548C340.021 11.3228 340.475 11.5102 340.81 11.8432C341.145 12.1763 341.333 12.6279 341.334 13.0989V55.2007C341.333 55.6718 341.145 56.1233 340.81 56.4564C340.475 56.7894 340.021 56.9768 339.548 56.9773Z" fill="white"/>
<path d="M262.754 25.9971C262.433 25.9971 262.124 26.1241 261.897 26.3503C261.67 26.5765 261.542 26.8833 261.542 27.2032C261.542 27.5231 261.67 27.8299 261.897 28.0561C262.124 28.2823 262.433 28.4094 262.754 28.4094H319.91C320.231 28.4094 320.54 28.2823 320.767 28.0561C320.994 27.8299 321.122 27.5231 321.122 27.2032C321.122 26.8833 320.994 26.5765 320.767 26.3503C320.54 26.1241 320.231 25.9971 319.91 25.9971H262.754Z" fill="#5199FF"/>
<path d="M262.754 32.9863C262.433 32.9863 262.124 33.1134 261.897 33.3396C261.67 33.5658 261.542 33.8726 261.542 34.1925C261.542 34.5124 261.67 34.8192 261.897 35.0454C262.124 35.2716 262.433 35.3986 262.754 35.3986H319.91C320.231 35.3986 320.54 35.2716 320.767 35.0454C320.994 34.8192 321.122 34.5124 321.122 34.1925C321.122 33.8726 320.994 33.5658 320.767 33.3396C320.54 33.1134 320.231 32.9863 319.91 32.9863H262.754Z" fill="#5199FF"/>
<path d="M262.754 39.8906C262.433 39.8906 262.124 40.0177 261.897 40.2439C261.67 40.4701 261.542 40.7769 261.542 41.0968C261.542 41.4167 261.67 41.7234 261.897 41.9496C262.124 42.1758 262.433 42.3029 262.754 42.3029H287.348C287.67 42.3029 287.978 42.1758 288.206 41.9496C288.433 41.7234 288.561 41.4167 288.561 41.0968C288.561 40.7769 288.433 40.4701 288.206 40.2439C287.978 40.0177 287.67 39.8906 287.348 39.8906H262.754Z" fill="#5199FF"/>
</g>
<g filter="url(#filter0_d_10602_965)">
<rect width="40" height="40" rx="2" transform="matrix(-1 0 0 1 52 89)" fill="white"/>
</g>
<mask id="mask0_10602_965" style="mask-type:alpha" maskUnits="userSpaceOnUse" x="24" y="101" width="16" height="16">
<path d="M24 108H36.17L30.58 102.41L32 101L40 109L32 117L30.59 115.59L36.17 110H24V108Z" fill="black"/>
</mask>
<g mask="url(#mask0_10602_965)">
<rect width="24" height="24" transform="matrix(-1 0 0 1 44 97)" fill="#686868"/>
</g>
<defs>
<filter id="filter0_d_10602_965" x="0" y="85" width="64" height="64" filterUnits="userSpaceOnUse" color-interpolation-filters="sRGB">
<feFlood flood-opacity="0" result="BackgroundImageFix"/>
<feColorMatrix in="SourceAlpha" type="matrix" values="0 0 0 0 0 0 0 0 0 0 0 0 0 0 0 0 0 0 127 0" result="hardAlpha"/>
<feOffset dy="8"/>
<feGaussianBlur stdDeviation="6"/>
<feColorMatrix type="matrix" values="0 0 0 0 0 0 0 0 0 0 0 0 0 0 0 0 0 0 0.1 0"/>
<feBlend mode="normal" in2="BackgroundImageFix" result="effect1_dropShadow_10602_965"/>
<feBlend mode="normal" in="SourceGraphic" in2="effect1_dropShadow_10602_965" result="shape"/>
</filter>
<clipPath id="clip0_10602_965">
<rect width="193" height="145" fill="white" transform="translate(95)"/>
</clipPath>
</defs>
</svg>
