<svg width="18" height="18" viewBox="0 0 18 18" fill="none" xmlns="http://www.w3.org/2000/svg">
<path d="M2.55927 0.333008H15.4435C16.6675 0.333008 17.6682 1.33403 17.6682 2.55809V15.4423C17.6682 16.666 16.6675 17.6663 15.4435 17.6663H2.55927C1.33521 17.6663 0.333496 16.666 0.333496 15.4423V2.55809C0.333496 1.33403 1.33521 0.333008 2.55927 0.333008ZM12.9616 2.25814C12.5318 2.25814 12.1813 2.6101 12.1813 3.03965V4.90683C12.1813 5.33656 12.5318 5.6877 12.9616 5.6877H14.9206C15.3497 5.6877 15.701 5.33656 15.701 4.90683V3.03965C15.701 2.6101 15.3497 2.25814 14.9206 2.25814H12.9616ZM15.7085 7.66305H14.1832C14.3279 8.13542 14.4063 8.63356 14.4063 9.15147C14.4063 12.0338 11.9929 14.3715 9.01715 14.3715C6.04211 14.3715 3.62871 12.0338 3.62871 9.15147C3.62871 8.63356 3.70787 8.13542 3.85181 7.66305H2.26054V14.9859C2.26054 15.3652 2.57019 15.6737 2.94907 15.6737H15.0202C15.3994 15.6737 15.7085 15.3652 15.7085 14.9859V7.66305ZM9.01721 5.58924C7.09537 5.58924 5.5364 7.09898 5.5364 8.96304C5.5364 10.8252 7.09537 12.3361 9.01721 12.3361C10.9401 12.3361 12.4991 10.8252 12.4991 8.96304C12.4991 7.09892 10.9401 5.58924 9.01721 5.58924Z" fill="white"/>
</svg>
