<svg width="265" height="135" viewBox="0 0 265 135" fill="none" xmlns="http://www.w3.org/2000/svg">
<g clip-path="url(#clip0_10602_964)">
<path d="M242.176 131C254.781 131 265 129.676 265 128.042C265 126.408 254.781 125.083 242.176 125.083C229.571 125.083 219.353 126.408 219.353 128.042C219.353 129.676 229.571 131 242.176 131Z" fill="#3F3D56"/>
<path d="M156.904 4.3418H88V47.2822H156.904V4.3418Z" fill="#F2F2F2"/>
<path d="M161.25 0.158203H92.3462V43.0986H161.25V0.158203Z" stroke="#3F3D56" stroke-width="2" stroke-miterlimit="10"/>
<path d="M137.381 32.0419C139.459 29.9666 140.874 27.3224 141.447 24.4438C142.02 21.5652 141.726 18.5814 140.601 15.8698C139.477 13.1582 137.573 10.8405 135.13 9.20993C132.687 7.57932 129.815 6.70899 126.877 6.70898V21.5487L137.381 32.0419Z" fill="#3F3D56"/>
<path d="M126.877 6.70898C123.575 6.70938 120.367 7.8085 117.76 9.83279C115.154 11.8571 113.296 14.6912 112.481 17.8875C111.666 21.0839 111.94 24.4603 113.26 27.4836C114.58 30.507 116.871 33.0049 119.77 34.583L126.877 21.5487V6.70898Z" fill="#5199FF"/>
<path d="M137.381 32.0421L126.877 21.5488L119.77 34.5832C122.587 36.1142 125.824 36.694 128.998 36.236C132.172 35.7781 135.113 34.3069 137.381 32.0421Z" fill="#575A89"/>
<path d="M97.7983 34.1787H94.9536V37.0204H97.7983V34.1787Z" fill="#5199FF"/>
<path d="M101.907 34.1787H99.0625V37.0204H101.907V34.1787Z" fill="#3F3D56"/>
<path d="M106.016 34.1787H103.171V37.0204H106.016V34.1787Z" fill="#575A89"/>
<path d="M155.797 34.8105H144.103V35.2841H155.797V34.8105Z" fill="#3F3D56"/>
<path d="M155.797 36.2314H144.103V36.705H155.797V36.2314Z" fill="#3F3D56"/>
<path d="M155.797 37.6514H144.103V38.125H155.797V37.6514Z" fill="#3F3D56"/>
<path d="M148.844 64.1738H109.651V107.114H148.844V64.1738Z" fill="#F2F2F2"/>
<path d="M152.795 60.0693H113.602V103.01H152.795V60.0693Z" stroke="#3F3D56" stroke-width="2" stroke-miterlimit="10"/>
<path d="M117.769 98.165H115.656V100.276H117.769V98.165Z" fill="#5199FF"/>
<path d="M120.822 98.165H118.708V100.276H120.822V98.165Z" fill="#3F3D56"/>
<path d="M123.874 98.165H121.761V100.276H123.874V98.165Z" fill="#575A89"/>
<path d="M147.58 99.082H139.362V99.4148H147.58V99.082Z" fill="#3F3D56"/>
<path d="M147.58 100.081H139.362V100.414H147.58V100.081Z" fill="#3F3D56"/>
<path d="M147.58 101.079H139.362V101.412H147.58V101.079Z" fill="#3F3D56"/>
<path d="M133.198 67.6475V71.1206C135.261 71.1206 137.278 71.7317 138.993 72.8766C140.708 74.0215 142.045 75.6487 142.835 77.5526C143.624 79.4565 143.831 81.5515 143.428 83.5727C143.026 85.5938 142.032 87.4504 140.574 88.9076L143.032 91.3634C144.977 89.4205 146.302 86.9451 146.838 84.2502C147.375 81.5554 147.099 78.762 146.047 76.2235C144.994 73.685 143.212 71.5153 140.925 69.9888C138.638 68.4622 135.949 67.6475 133.198 67.6475Z" fill="#3F3D56"/>
<path d="M143.032 91.3631L140.574 88.9072C138.791 90.689 136.421 91.7647 133.905 91.9351C131.389 92.1056 128.896 91.3592 126.888 89.8342L124.784 92.6002C127.461 94.6329 130.785 95.6277 134.14 95.4003C137.495 95.1728 140.655 93.7386 143.032 91.3631Z" fill="#575A89"/>
<path d="M122.768 81.5399C122.768 78.7766 123.867 76.1264 125.823 74.1723C127.779 72.2183 130.432 71.1206 133.198 71.1206V67.6475C130.287 67.6474 127.449 68.5601 125.084 70.2568C122.72 71.9535 120.948 74.3487 120.019 77.1047C119.089 79.8608 119.049 82.8387 119.904 85.6188C120.759 88.3988 122.465 90.8408 124.783 92.6005L126.888 89.8345C125.606 88.8637 124.568 87.6095 123.853 86.1704C123.138 84.7314 122.767 83.1464 122.768 81.5399Z" fill="#5199FF"/>
<path d="M235.23 22.2584C235.23 22.2584 234.585 27.0435 236.243 27.5956C237.902 28.1477 237.441 32.3807 237.441 32.3807L232.467 36.1536L228.045 36.5217L226.939 30.8164L227.584 29.344C227.584 29.344 230.071 26.3993 228.321 23.3626C226.571 20.3259 235.23 22.2584 235.23 22.2584Z" fill="#FFB9B9"/>
<path opacity="0.1" d="M235.23 22.2584C235.23 22.2584 234.585 27.0435 236.243 27.5956C237.902 28.1477 237.441 32.3807 237.441 32.3807L232.467 36.1536L228.045 36.5217L226.939 30.8164L227.584 29.344C227.584 29.344 230.071 26.3993 228.321 23.3626C226.571 20.3259 235.23 22.2584 235.23 22.2584Z" fill="black"/>
<path d="M230.624 59.527L224.82 73.1462C224.82 73.1462 220.307 70.5696 217.635 70.8456C214.964 71.1217 211.647 67.901 211.647 67.901L214.964 51.8892L221.136 34.8652L229.703 40.2945L230.624 59.527Z" fill="#575A89"/>
<path opacity="0.1" d="M230.624 59.527L224.82 73.1462C224.82 73.1462 220.307 70.5696 217.635 70.8456C214.964 71.1217 211.647 67.901 211.647 67.901L214.964 51.8892L221.136 34.8652L229.703 40.2945L230.624 59.527Z" fill="black"/>
<path d="M239.744 117.409V121.826H235.599L236.243 116.673L239.744 117.409Z" fill="#575A89"/>
<path d="M250.522 109.771L253.562 111.611L251.351 116.672L249.048 116.396L246.837 113.267L250.522 109.771Z" fill="#575A89"/>
<path d="M240.573 58.2393L246.008 71.0302C246.008 71.0302 244.073 85.2015 244.165 86.3978C244.257 87.5941 244.35 88.0542 243.889 89.0664C243.428 90.0787 243.244 90.7228 243.52 91.9191C243.797 93.1154 243.889 93.5755 243.705 94.0356C243.52 94.4957 242.231 113.452 241.586 114.74C240.941 116.029 241.954 118.145 241.31 118.329C240.665 118.513 235.875 118.053 235.598 116.949C235.322 115.845 236.519 113.176 235.875 112.348C235.23 111.52 235.967 81.7047 235.046 79.6803C234.124 77.6558 223.991 75.8154 223.991 75.8154C223.991 75.8154 223.07 69.926 223.623 69.0058C224.176 68.0856 224.913 62.2882 224.913 62.2882L240.573 58.2393Z" fill="#2F2E41"/>
<path d="M235.229 121.09C235.229 121.09 237.809 118.053 240.02 121.09C240.02 121.09 240.204 124.679 241.77 125.415C243.336 126.151 242.599 129.096 240.388 129.188C238.177 129.28 235.322 129.648 235.229 128.452C235.137 127.255 235.598 126.519 234.769 126.151C233.94 125.783 234.769 123.666 234.769 123.666L235.229 121.09Z" fill="#2F2E41"/>
<path d="M235.506 77.1037C235.506 77.1037 235.414 83.7293 234.769 84.6495C234.124 85.5697 233.756 86.1218 234.124 87.1341C234.493 88.1463 235.045 89.9867 234.769 90.3548C234.493 90.7229 235.045 92.6553 235.045 92.6553C235.045 92.6553 242.138 96.0601 245.455 103.146C245.455 103.146 248.863 108.759 249.876 108.851C250.89 108.943 252.087 108.207 251.535 110.323C250.982 112.44 248.863 115.201 247.297 114.925C245.731 114.648 244.533 111.98 244.533 111.98C244.533 111.98 232.282 99.557 230.992 99.1889C229.702 98.8208 226.018 95.8761 225.373 94.0357C224.728 92.1952 223.346 76.8276 223.991 75.8154C224.636 74.8032 227.031 73.4229 227.031 73.4229L235.506 77.1037Z" fill="#2F2E41"/>
<path d="M251.443 109.402C251.443 109.402 257.154 109.586 257.246 110.967C257.338 112.347 254.851 120.537 255.219 122.469C255.588 124.402 252.364 128.819 250.245 127.899C248.126 126.978 249.784 122.193 249.784 122.193C249.784 122.193 247.666 115.66 248.034 115.568C248.403 115.476 252.087 114.372 251.903 113.267C251.719 112.163 251.443 109.402 251.443 109.402Z" fill="#2F2E41"/>
<path d="M230.946 27.1821C234.1 27.1821 236.658 24.6278 236.658 21.4768C236.658 18.3258 234.1 15.7715 230.946 15.7715C227.792 15.7715 225.235 18.3258 225.235 21.4768C225.235 24.6278 227.792 27.1821 230.946 27.1821Z" fill="#FFB9B9"/>
<path d="M236.704 30.2643C236.704 30.2643 233.572 33.5771 231.269 33.025C228.966 32.4728 227.768 28.5159 227.768 28.5159L223.623 27.7798C223.623 27.7798 220.675 40.8468 220.675 42.1351C220.675 43.4234 223.623 57.3186 223.623 59.8032C223.623 62.2878 221.228 63.7601 224.913 63.6681C228.597 63.5761 226.847 62.3798 232.19 62.2878C237.533 62.1958 238.362 63.392 239.467 61.4596C240.221 60.1988 241.152 59.0523 242.231 58.0548L240.297 51.2452L240.02 32.0127C240.02 32.0127 237.658 27.4117 236.582 27.7798C236.582 27.7798 237.164 29.8042 236.704 30.2643Z" fill="#5199FF"/>
<path d="M235.569 26.9658C235.569 26.9658 240.48 27.5036 241.862 28.5159C243.244 29.5281 247.113 30.2643 247.021 31.0005C246.929 31.7366 242.507 42.2271 242.507 42.2271C242.507 42.2271 240.48 50.509 242.231 52.4415C243.981 54.3739 250.521 75.4468 249.416 77.1952C248.31 78.9436 244.81 71.858 244.81 71.858C244.81 71.858 240.112 56.6744 237.533 54.0978C234.953 51.5212 234.769 37.626 234.769 36.9818C234.769 36.3377 235.569 26.9658 235.569 26.9658Z" fill="#575A89"/>
<path d="M228.385 28.0327C228.385 28.0327 222.333 25.7548 220.214 26.675C218.096 27.5952 216.806 27.7793 216.806 27.7793L216.069 36.7974C216.069 36.7974 215.793 49.7724 213.398 52.9011C211.003 56.0299 209.437 69.0969 209.805 70.3852C210.174 71.6735 209.16 73.882 210.726 73.3299C212.292 72.7778 216.622 60.0788 216.622 60.0788C216.622 60.0788 216.622 52.8091 219.201 50.7846C221.78 48.7602 226.018 40.3862 226.202 38.3617C226.386 36.3373 228.137 30.724 228.137 30.724L228.385 28.0327Z" fill="#575A89"/>
<path d="M249.14 57.0424C249.14 57.0424 246.376 62.1955 246.008 63.1158C245.639 64.036 243.06 70.2935 239.375 68.9131C235.691 67.5328 242.968 60.8152 242.968 60.8152L244.626 55.2019C244.626 55.2019 248.956 54.2817 249.14 57.0424Z" fill="#FFB9B9"/>
<path d="M217.727 27.7801H216.806C216.806 27.7801 215.885 27.0439 214.779 27.504C213.674 27.9641 211.095 27.32 211.095 27.596C211.095 27.8721 208.239 26.7678 207.041 27.32C205.844 27.8721 201.514 28.0561 201.514 28.0561C201.514 28.0561 199.764 32.4732 200.961 33.3014C202.159 34.1296 203.909 33.4854 204.738 34.1296C205.567 34.7737 207.133 34.0375 207.686 34.8657C208.239 35.6939 210.265 37.1663 210.726 36.2461C211.187 35.3258 210.265 34.4977 212.2 35.5099C214.134 36.5221 217.174 36.5221 217.174 36.5221L217.727 27.7801Z" fill="#575A89"/>
<path d="M231.461 17.2614C230.689 17.083 229.886 17.2807 229.103 17.4088C228.321 17.537 227.458 17.5792 226.796 17.1429C226.307 16.8207 226.006 16.2877 225.724 15.7749C225.606 15.5918 225.528 15.3863 225.493 15.1713C225.46 14.7921 225.702 14.4461 225.958 14.1646C227.149 12.8566 228.89 12.1408 230.645 11.9134C232.088 11.7265 233.592 11.8517 234.925 12.4355C236.257 13.0193 237.403 14.0884 237.927 15.4444C238.168 16.1384 238.319 16.8606 238.375 17.5932C238.454 18.1321 238.464 18.679 238.405 19.2205C238.335 19.6219 238.229 20.0164 238.09 20.3994L237.222 23.017C237.159 23.2644 237.043 23.4948 236.88 23.6918C236.797 23.7882 236.685 23.8551 236.56 23.8824C236.435 23.9097 236.305 23.8959 236.189 23.8431C236.259 23.5588 236.269 23.2633 236.22 22.9747C236.193 22.8309 236.123 22.6985 236.02 22.5946C235.917 22.4907 235.785 22.42 235.642 22.3917C235.322 22.3578 235.048 22.6055 234.745 22.7121C234.599 22.7554 234.446 22.7679 234.295 22.7491C234.144 22.7302 233.998 22.6803 233.867 22.6025C233.737 22.5248 233.623 22.4208 233.535 22.2972C233.446 22.1735 233.384 22.0329 233.353 21.8842C233.305 21.5849 233.385 21.2645 233.272 20.9835C233.138 20.6542 232.786 20.4817 232.521 20.2451C232.279 20.0222 232.106 19.7349 232.022 19.417C231.938 19.0992 231.946 18.764 232.046 18.4508C232.117 18.233 232.318 18.1339 232.278 17.8837C232.225 17.5554 231.741 17.3258 231.461 17.2614Z" fill="#2F2E41"/>
<path d="M207.317 37.3359H168.124V80.2764H207.317V37.3359Z" fill="#F2F2F2"/>
<path d="M211.268 33.2314H172.075V76.1719H211.268V33.2314Z" stroke="#3F3D56" stroke-width="2" stroke-miterlimit="10"/>
<path d="M175.868 35.915V68.7518H207.633" stroke="#3F3D56" stroke-width="2" stroke-miterlimit="10"/>
<path d="M184.718 57.2275H177.606V68.5941H184.718V57.2275Z" fill="#575A89"/>
<path d="M194.99 49.4922H187.878V68.5944H194.99V49.4922Z" fill="#3F3D56"/>
<path d="M205.262 40.4932H198.151V68.5939H205.262V40.4932Z" fill="#5199FF"/>
<path d="M177.507 71.3271H175.394V73.4381H177.507V71.3271Z" fill="#5199FF"/>
<path d="M180.559 71.3271H178.446V73.4381H180.559V71.3271Z" fill="#3F3D56"/>
<path d="M183.612 71.3271H181.499V73.4381H183.612V71.3271Z" fill="#575A89"/>
<path d="M207.317 72.2441H199.099V72.577H207.317V72.2441Z" fill="#3F3D56"/>
<path d="M207.317 73.2432H199.099V73.576H207.317V73.2432Z" fill="#3F3D56"/>
<path d="M207.317 74.2412H199.099V74.574H207.317V74.2412Z" fill="#3F3D56"/>
<path d="M202.467 28.0506C204.146 28.1235 205.394 29.6451 205.213 31.3148C205.048 32.8275 204.441 34.7097 202.528 35.4327C199.12 36.721 199.304 29.4513 199.949 29.1753C200.378 28.9912 201.054 27.9892 202.467 28.0506Z" fill="#FFB9B9"/>
<path d="M246.008 30.5088L247.021 31.0004C247.021 31.0004 249.232 35.5095 249.324 36.1536C249.416 36.7978 250.89 39.1903 250.337 39.8345C249.785 40.4786 248.956 42.135 249.508 42.7792C250.061 43.4233 251.351 45.9999 251.351 46.9201C251.351 47.8403 249.969 50.3249 250.89 50.601C251.811 50.877 251.535 54.4659 251.351 54.7419C251.167 55.018 248.771 59.527 248.771 59.527C248.771 59.527 248.311 54.3738 243.797 56.4903C243.797 56.4903 243.429 53.9137 243.797 53.7297C244.166 53.5457 245.087 52.4414 244.35 52.2574C243.613 52.0733 242.6 49.8648 242.784 49.5887C242.968 49.3127 243.429 48.9446 242.968 48.6685C242.507 48.3924 242.139 46.8281 242.231 46.552C242.323 46.276 241.218 44.9877 241.218 44.9877L246.008 30.5088Z" fill="#575A89"/>
</g>
<g filter="url(#filter0_d_10602_964)">
<rect width="40" height="40" rx="2" transform="matrix(-1 0 0 1 52 75)" fill="white"/>
</g>
<mask id="mask0_10602_964" style="mask-type:alpha" maskUnits="userSpaceOnUse" x="24" y="87" width="16" height="16">
<path d="M24 94H36.17L30.58 88.41L32 87L40 95L32 103L30.59 101.59L36.17 96H24V94Z" fill="black"/>
</mask>
<g mask="url(#mask0_10602_964)">
<rect width="24" height="24" transform="matrix(-1 0 0 1 44 83)" fill="#686868"/>
</g>
<defs>
<filter id="filter0_d_10602_964" x="0" y="71" width="64" height="64" filterUnits="userSpaceOnUse" color-interpolation-filters="sRGB">
<feFlood flood-opacity="0" result="BackgroundImageFix"/>
<feColorMatrix in="SourceAlpha" type="matrix" values="0 0 0 0 0 0 0 0 0 0 0 0 0 0 0 0 0 0 127 0" result="hardAlpha"/>
<feOffset dy="8"/>
<feGaussianBlur stdDeviation="6"/>
<feColorMatrix type="matrix" values="0 0 0 0 0 0 0 0 0 0 0 0 0 0 0 0 0 0 0.1 0"/>
<feBlend mode="normal" in2="BackgroundImageFix" result="effect1_dropShadow_10602_964"/>
<feBlend mode="normal" in="SourceGraphic" in2="effect1_dropShadow_10602_964" result="shape"/>
</filter>
<clipPath id="clip0_10602_964">
<rect width="177" height="131" fill="white" transform="translate(88)"/>
</clipPath>
</defs>
</svg>
