<svg width="12" height="21" viewBox="0 0 12 21" fill="none" xmlns="http://www.w3.org/2000/svg">
<path fill-rule="evenodd" clip-rule="evenodd" d="M5.11037 14.8146C3.66154 14.7277 2.27134 14.2113 1.11709 13.3313C0.973863 13.2167 0.824911 13.1021 0.69314 12.9721C0.454525 12.7672 0.30498 12.4775 0.276111 12.1644C0.247242 11.8512 0.341372 11.5391 0.538511 11.294C0.695424 11.0503 0.940966 10.8772 1.22326 10.8113C1.50555 10.7454 1.80237 10.792 2.05095 10.9411C2.16655 11.0007 2.27766 11.0686 2.38329 11.1445C3.4405 11.8981 4.7036 12.3088 6.00185 12.3211C7.3001 12.3334 8.5708 11.9467 9.6421 11.2132C9.84998 11.0386 10.0919 10.909 10.3525 10.8328C10.5929 10.762 10.8505 10.7758 11.0819 10.8719C11.3134 10.968 11.5049 11.1407 11.6244 11.361C11.7853 11.5773 11.8653 11.843 11.8506 12.112C11.836 12.3811 11.7276 12.6365 11.5442 12.834C10.9544 13.4565 10.2345 13.9413 9.43585 14.2537C8.66287 14.5419 7.85615 14.7299 7.03537 14.8129C7.16141 14.9521 7.21867 15.0208 7.29315 15.0993C8.40461 16.2589 9.52184 17.4139 10.6276 18.5781C10.803 18.7499 10.9209 18.972 10.965 19.2136C11.0091 19.4552 10.9773 19.7045 10.8739 19.9273C10.772 20.1686 10.6003 20.374 10.3808 20.5169C10.1613 20.6599 9.90401 20.7338 9.6421 20.7294C9.33843 20.6969 9.05917 20.548 8.86294 20.314C8.02075 19.4375 7.1671 18.5764 6.34782 17.6832C6.1072 17.4231 5.99263 17.4729 5.78638 17.6986C4.93846 18.6008 4.08483 19.4921 3.22546 20.3724C3.06927 20.5558 2.85483 20.6798 2.61806 20.7238C2.38129 20.7679 2.13656 20.7291 1.92492 20.6142C1.69289 20.4978 1.49868 20.318 1.36481 20.0956C1.23094 19.8732 1.16294 19.6173 1.16871 19.3578C1.19501 19.0363 1.33998 18.7361 1.57545 18.5156C2.67545 17.3755 3.77163 16.2331 4.86399 15.0885C4.93847 15.0134 5.00725 14.9326 5.11037 14.8146ZM6.02129 10.8403C5.00759 10.8737 4.00708 10.6028 3.14874 10.0625C2.29039 9.52213 1.61358 8.73714 1.20542 7.80863C0.797269 6.88013 0.676515 5.85067 0.858749 4.85292C1.04098 3.85518 1.51779 2.93487 2.22782 2.2106C2.93784 1.48632 3.84852 0.991272 4.84245 0.78925C5.83638 0.587229 6.86802 0.687483 7.80445 1.07711C8.74089 1.46673 9.53919 2.12787 10.0965 2.97531C10.6537 3.82275 10.9445 4.81765 10.9312 5.83182C10.9376 7.14511 10.4256 8.40789 9.50621 9.34572C8.58683 10.2836 7.33446 10.8207 6.02129 10.8403ZM8.44472 5.76136C8.4247 5.29326 8.2674 4.84138 7.99244 4.46202C7.71748 4.08265 7.33699 3.79255 6.89836 3.62785C6.45973 3.46315 5.98235 3.43114 5.52566 3.53578C5.06896 3.64042 4.65319 3.87709 4.33003 4.21633C4.00686 4.55557 3.79058 4.9824 3.70823 5.44364C3.62587 5.90487 3.68105 6.38014 3.86684 6.81026C4.05263 7.24038 4.36081 7.60636 4.75307 7.86259C5.14533 8.11882 5.60431 8.25398 6.07284 8.25126C6.39235 8.24443 6.70738 8.17451 6.99977 8.04551C7.29216 7.9165 7.55612 7.73095 7.77655 7.49955C7.99698 7.26815 8.16955 6.99548 8.28422 6.69717C8.39888 6.39887 8.4534 6.08082 8.44472 5.76136Z" fill="#E5E5E5"/>
</svg>
