<svg width="264" height="128" viewBox="0 0 264 128" fill="none" xmlns="http://www.w3.org/2000/svg">
<g clip-path="url(#clip0_10602_963)">
<path d="M221.924 53.6201L220.583 56.7499L212.358 67.6593C212.358 67.6593 206.726 73.7399 209.855 74.0976C212.984 74.4553 215.04 68.4641 215.04 68.4641L224.695 58.896L225.768 54.5143L221.924 53.6201Z" fill="#FFB9B9"/>
<path d="M226.036 40.9229L224.74 41.2857C224.74 41.2857 218.921 56.7474 219.457 58.6253C219.994 60.5031 222.408 62.8281 223.48 62.6492C224.553 62.4704 226.036 40.9229 226.036 40.9229Z" fill="#5199FF"/>
<path d="M244.144 120.382C244.144 120.382 243.574 123.234 245.285 122.092C246.995 120.951 247.887 118.743 247.887 118.743L244.144 120.382Z" fill="#2F2E41"/>
<path d="M223.89 56.0352C223.89 56.0352 205.742 120.061 212.179 121.939C218.616 123.816 228.092 121.76 228.003 120.508C227.913 119.256 226.304 94.4863 226.304 94.4863C226.304 94.4863 235.691 127.393 247.314 119.703C258.936 112.013 256.343 110.582 255.27 110.046C254.198 109.509 238.016 84.024 238.105 79.2847C238.195 74.5454 237.926 59.7014 235.96 57.4659L223.89 56.0352Z" fill="#2F2E41"/>
<path d="M263.924 124H153.779V123.581H264L263.924 124Z" fill="#3F3D56"/>
<path d="M235.418 33.2711C234.719 32.6394 234.284 31.7683 234.198 30.8305C234.111 29.8927 234.38 28.9567 234.951 28.208C234.876 28.2789 234.802 28.3525 234.731 28.4308C234.064 29.1697 233.718 30.1434 233.768 31.1378C233.818 32.1321 234.261 33.0658 235 33.7335C235.738 34.4012 236.711 34.7484 237.706 34.6987C238.7 34.649 239.633 34.2065 240.302 33.4684C240.372 33.3902 240.438 33.3092 240.501 33.2269C239.814 33.8705 238.91 34.2322 237.968 34.2404C237.027 34.2486 236.116 33.9026 235.418 33.2711Z" fill="#2F2E41"/>
<path d="M235.066 34.1711C239.337 34.1711 242.799 30.708 242.799 26.4361C242.799 22.1642 239.337 18.7012 235.066 18.7012C230.795 18.7012 227.333 22.1642 227.333 26.4361C227.333 30.708 230.795 34.1711 235.066 34.1711Z" fill="#2F2E41"/>
<path d="M214.235 121.67C214.235 121.67 212.179 123.727 214.235 123.727C216.291 123.727 218.258 122.385 218.258 122.385L214.235 121.67Z" fill="#2F2E41"/>
<path d="M230.148 31.2655C230.148 31.2655 231.489 36.8096 230.506 37.8827C229.523 38.9557 227.377 39.7605 227.377 39.7605L227.735 49.7757C227.735 49.7757 231.847 48.345 232.026 48.1661C232.205 47.9873 235.87 42.1749 235.87 42.1749L239.446 38.7769C239.446 38.7769 233.993 36.1837 235.602 31.7126C237.211 27.2415 230.148 31.2655 230.148 31.2655Z" fill="#E6A7A7"/>
<path d="M238.045 29.4164C238.457 26.8815 236.736 24.4931 234.201 24.0817C231.667 23.6703 229.279 25.3918 228.868 27.9267C228.456 30.4617 230.178 32.8501 232.712 33.2614C235.246 33.6728 237.634 31.9513 238.045 29.4164Z" fill="#FFB9B9"/>
<path d="M235.96 57.4657C235.96 57.4657 238.016 50.6697 238.999 49.7755C239.983 48.8812 242.397 40.4756 242.397 40.4756C242.397 40.4756 240.877 38.4189 239.625 38.4189C238.374 38.4189 237.211 38.8661 235.781 40.2074C235.107 40.839 233.879 41.534 232.767 42.0926C232.373 42.2942 231.942 42.4152 231.5 42.4484C231.058 42.4817 230.615 42.4266 230.194 42.2863C229.774 42.146 229.386 41.9234 229.053 41.6314C228.72 41.3395 228.448 40.984 228.254 40.5858C228.031 40.1135 227.958 39.6609 228.182 39.3132C228.182 39.3132 224.874 40.2074 224.695 41.4593C224.516 42.7112 224.695 45.3044 224.427 45.8409C224.159 46.3774 223.354 47.1822 223.712 50.5803C224.069 53.9783 223.338 58.2751 223.338 58.2751C226.678 61.4625 231.305 59.495 235.96 57.4657Z" fill="#5199FF"/>
<path d="M233.412 27.1963C235.584 27.1963 237.345 25.9953 237.345 24.5137C237.345 23.0321 235.584 21.8311 233.412 21.8311C231.239 21.8311 229.478 23.0321 229.478 24.5137C229.478 25.9953 231.239 27.1963 233.412 27.1963Z" fill="#2F2E41"/>
<path d="M240.117 24.3346C242.19 24.3346 243.872 22.6531 243.872 20.5789C243.872 18.5047 242.19 16.8232 240.117 16.8232C238.043 16.8232 236.362 18.5047 236.362 20.5789C236.362 22.6531 238.043 24.3346 240.117 24.3346Z" fill="#2F2E41"/>
<path d="M242.799 23.2621C241.857 23.2619 240.95 22.9079 240.257 22.2703C239.564 21.6326 239.136 20.7578 239.058 19.8193C239.049 19.9226 239.044 20.0268 239.044 20.1323C239.044 21.128 239.44 22.0829 240.143 22.7871C240.847 23.4912 241.802 23.887 242.797 23.8875C243.793 23.8879 244.748 23.4929 245.452 22.7893C246.156 22.0858 246.553 21.1312 246.554 20.1355V20.1323C246.554 20.0268 246.548 19.9226 246.54 19.8193C246.461 20.7578 246.033 21.6326 245.34 22.2703C244.648 22.9079 243.74 23.2619 242.799 23.2621Z" fill="#2F2E41"/>
<path d="M233.992 80.7021H232.743L230.247 102.48L238.48 102.203L233.992 80.7021Z" fill="#5199FF"/>
<path opacity="0.2" d="M233.992 80.7021H232.743L230.247 102.48L238.48 102.203L233.992 80.7021Z" fill="black"/>
<path d="M233.576 80.4238L232.05 102.341L250.736 103.729L252.261 82.3659L233.576 80.4238Z" fill="#5199FF"/>
<path opacity="0.2" d="M239.867 82.6434C240.021 82.6434 240.145 82.5189 240.145 82.3652C240.145 82.2115 240.021 82.0869 239.867 82.0869C239.713 82.0869 239.589 82.2115 239.589 82.3652C239.589 82.5189 239.713 82.6434 239.867 82.6434Z" fill="black"/>
<path opacity="0.2" d="M245.692 83.3368C245.845 83.3368 245.97 83.2122 245.97 83.0585C245.97 82.9049 245.845 82.7803 245.692 82.7803C245.538 82.7803 245.414 82.9049 245.414 83.0585C245.414 83.2122 245.538 83.3368 245.692 83.3368Z" fill="black"/>
<path d="M245.761 83.0604H245.623C245.623 83.0009 245.721 77.1498 242.361 76.6105C241.699 76.505 241.158 76.6546 240.753 77.0557C239.366 78.4317 239.94 82.3178 239.946 82.3562L239.809 82.3773C239.784 82.2141 239.22 78.3818 240.657 76.9579C241.095 76.5222 241.678 76.3591 242.384 76.4723C245.861 77.0289 245.763 83.001 245.761 83.0604Z" fill="#3F3D56"/>
<path d="M242.665 52.8154L242.218 57.823L243.112 72.8458C243.112 72.8458 245.168 80.4466 242.039 80.2678C238.91 80.0889 240.072 72.3093 240.072 72.3093L238.642 54.8721L242.665 52.8154Z" fill="#FFB9B9"/>
<path d="M240.072 39.2236L242.397 40.4755C242.397 40.4755 245.526 61.7478 243.738 63.8045C241.95 65.8612 238.284 66.666 238.105 65.8612C237.927 65.0564 237.301 48.7023 237.301 48.7023L240.072 39.2236Z" fill="#5199FF"/>
<path d="M149.656 0H147.048C146.957 0 146.869 0.0364255 146.804 0.101264C146.739 0.166103 146.703 0.254044 146.703 0.34574V1.49037C146.703 1.58207 146.739 1.67001 146.804 1.73485C146.869 1.79969 146.957 1.83611 147.048 1.83611H147.48V3.55117H149.223V1.83611H149.656C149.747 1.83611 149.835 1.79969 149.9 1.73485C149.965 1.67001 150.001 1.58207 150.001 1.49037V0.34574C150.001 0.254046 149.965 0.166107 149.9 0.101269C149.835 0.0364303 149.747 3.0537e-06 149.656 0Z" fill="#E6E6E6"/>
<path d="M152.267 10.4756C150.67 8.13866 149.854 5.35617 149.935 2.52676C149.937 2.46148 149.915 2.3977 149.875 2.34627C149.835 2.29483 149.778 2.2589 149.715 2.24459V1.75H146.961V2.23772H146.923C146.886 2.23777 146.849 2.24512 146.815 2.25937C146.781 2.27362 146.75 2.29447 146.723 2.32075C146.697 2.34702 146.676 2.3782 146.662 2.41251C146.648 2.44682 146.641 2.48358 146.641 2.52069C146.641 2.52755 146.641 2.53441 146.642 2.54126C146.859 5.56586 146.126 8.27827 144.444 10.6785C144.347 10.8164 144.298 10.982 144.303 11.1505L144.604 20.466C144.611 20.6738 144.699 20.8708 144.848 21.0158C144.997 21.1608 145.196 21.2427 145.404 21.2444H151.632C151.842 21.2426 152.043 21.1589 152.193 21.011C152.342 20.863 152.428 20.6626 152.432 20.4523L152.548 11.4076C152.551 11.0757 152.453 10.7505 152.267 10.4756Z" fill="#E6E6E6"/>
<path d="M151.281 13.5703H145.86C145.78 13.5703 145.7 13.5877 145.627 13.6212C145.554 13.6547 145.49 13.7036 145.437 13.7645C145.385 13.8254 145.347 13.8969 145.325 13.9741C145.303 14.0513 145.297 14.1323 145.31 14.2117L146.129 19.5377H150.833L151.828 14.2296C151.843 14.1492 151.84 14.0665 151.82 13.9873C151.799 13.9081 151.761 13.8344 151.709 13.7715C151.657 13.7085 151.592 13.6579 151.518 13.6231C151.443 13.5883 151.363 13.5703 151.281 13.5703V13.5703Z" fill="white"/>
<path d="M178.679 27.9062H176.072C175.98 27.9063 175.892 27.9427 175.827 28.0075C175.762 28.0724 175.726 28.1603 175.726 28.252V29.3966C175.726 29.4883 175.762 29.5763 175.827 29.6411C175.892 29.7059 175.98 29.7424 176.072 29.7424H176.504V31.4574H178.247V29.7424H178.679C178.771 29.7424 178.859 29.7059 178.923 29.6411C178.988 29.5763 179.025 29.4883 179.025 29.3966V28.252C179.025 28.1603 178.988 28.0724 178.923 28.0075C178.859 27.9427 178.771 27.9062 178.679 27.9062Z" fill="#E6E6E6"/>
<path d="M181.291 38.3819C179.694 36.0449 178.878 33.2624 178.959 30.433C178.96 30.3677 178.939 30.304 178.899 30.2525C178.858 30.2011 178.802 30.1652 178.738 30.1508V29.6562H175.984V30.144H175.946C175.909 30.144 175.873 30.1514 175.838 30.1656C175.804 30.1799 175.773 30.2007 175.747 30.227C175.721 30.2533 175.7 30.2845 175.686 30.3188C175.671 30.3531 175.664 30.3898 175.664 30.4269C175.664 30.4338 175.665 30.4407 175.665 30.4475C175.882 33.4721 175.149 36.1845 173.467 38.5847C173.371 38.7227 173.321 38.8883 173.327 39.0567L173.628 48.3723C173.635 48.5801 173.722 48.777 173.871 48.922C174.02 49.0671 174.219 49.1489 174.427 49.1506H180.655C180.865 49.1489 181.067 49.0651 181.216 48.9172C181.365 48.7692 181.451 48.5688 181.455 48.3585L181.571 39.3139C181.574 38.9819 181.477 38.6568 181.291 38.3819Z" fill="#E6E6E6"/>
<path d="M180.304 41.4756H174.883C174.803 41.4756 174.724 41.493 174.651 41.5265C174.578 41.56 174.513 41.6089 174.461 41.6698C174.409 41.7307 174.37 41.8022 174.348 41.8794C174.326 41.9566 174.321 42.0376 174.333 42.1169L175.152 47.443H179.856L180.851 42.1349C180.866 42.0545 180.864 41.9717 180.843 41.8926C180.823 41.8134 180.785 41.7397 180.733 41.6768C180.68 41.6138 180.615 41.5632 180.541 41.5284C180.467 41.4936 180.386 41.4756 180.304 41.4756V41.4756Z" fill="white"/>
<path d="M145.99 67.3564H144.753C144.71 67.3564 144.668 67.3737 144.637 67.4045C144.607 67.4352 144.589 67.477 144.589 67.5204V68.0634C144.589 68.1069 144.607 68.1486 144.637 68.1794C144.668 68.2101 144.71 68.2274 144.753 68.2274H144.958V69.0409H145.785V68.2274H145.99C146.034 68.2274 146.075 68.2101 146.106 68.1794C146.137 68.1486 146.154 68.1069 146.154 68.0634V67.5204C146.154 67.477 146.137 67.4352 146.106 67.4045C146.075 67.3737 146.034 67.3564 145.99 67.3564Z" fill="#E6E6E6"/>
<path d="M147.229 72.3255C146.472 71.217 146.084 69.8971 146.123 68.555C146.124 68.524 146.114 68.4938 146.094 68.4694C146.075 68.445 146.048 68.4279 146.018 68.4211V68.1865H144.712V68.4179H144.694C144.676 68.4179 144.659 68.4214 144.643 68.4281C144.627 68.4349 144.612 68.4448 144.599 68.4573C144.587 68.4697 144.577 68.4845 144.57 68.5008C144.564 68.5171 144.56 68.5345 144.56 68.5521C144.56 68.5554 144.56 68.5586 144.561 68.5619C144.681 69.9314 144.312 71.2992 143.518 72.4217C143.472 72.4871 143.449 72.5657 143.451 72.6456L143.594 77.0644C143.598 77.163 143.639 77.2564 143.71 77.3252C143.78 77.394 143.875 77.4328 143.973 77.4336H146.928C147.027 77.4328 147.123 77.3931 147.194 77.3229C147.265 77.2527 147.305 77.1576 147.307 77.0579L147.362 72.7676C147.364 72.6101 147.317 72.4559 147.229 72.3255Z" fill="#E6E6E6"/>
<path d="M146.804 73.9502H143.985V75.3599H146.804V73.9502Z" fill="white"/>
<path d="M151.747 67.3564H150.511C150.467 67.3564 150.425 67.3737 150.395 67.4045C150.364 67.4352 150.347 67.477 150.347 67.5204V68.0634C150.347 68.1069 150.364 68.1486 150.395 68.1794C150.425 68.2101 150.467 68.2274 150.511 68.2274H150.716V69.0409H151.542V68.2274H151.747C151.791 68.2274 151.833 68.2101 151.863 68.1794C151.894 68.1486 151.911 68.1069 151.911 68.0634V67.5204C151.911 67.4989 151.907 67.4776 151.899 67.4577C151.891 67.4378 151.879 67.4197 151.863 67.4045C151.848 67.3893 151.83 67.3772 151.81 67.3689C151.79 67.3607 151.769 67.3564 151.747 67.3564Z" fill="#E6E6E6"/>
<path d="M152.986 72.3255C152.228 71.217 151.841 69.8971 151.88 68.555C151.88 68.524 151.87 68.4938 151.851 68.4694C151.832 68.445 151.805 68.4279 151.775 68.4211V68.1865H150.469V68.4179H150.451C150.433 68.4179 150.416 68.4214 150.4 68.4281C150.383 68.4349 150.369 68.4448 150.356 68.4573C150.344 68.4697 150.334 68.4845 150.327 68.5008C150.32 68.5171 150.317 68.5345 150.317 68.5521C150.317 68.5554 150.317 68.5586 150.317 68.5619C150.438 69.9314 150.069 71.2992 149.275 72.4217C149.229 72.4871 149.206 72.5657 149.208 72.6456L149.351 77.0644C149.354 77.163 149.396 77.2564 149.466 77.3252C149.537 77.394 149.632 77.4328 149.73 77.4336H152.684C152.784 77.4328 152.88 77.3931 152.951 77.3229C153.021 77.2527 153.062 77.1576 153.064 77.0579L153.119 72.7676C153.121 72.6101 153.074 72.4559 152.986 72.3255Z" fill="#E6E6E6"/>
<path d="M152.561 73.9502H149.742V75.3599H152.561V73.9502Z" fill="white"/>
<path d="M157.504 67.3564H156.267C156.224 67.3564 156.182 67.3737 156.152 67.4045C156.121 67.4352 156.104 67.477 156.104 67.5204V68.0634C156.104 68.1069 156.121 68.1486 156.152 68.1794C156.182 68.2101 156.224 68.2274 156.267 68.2274H156.472V69.0409H157.299V68.2274H157.504C157.548 68.2274 157.589 68.2101 157.62 68.1794C157.651 68.1486 157.668 68.1069 157.668 68.0634V67.5204C157.668 67.477 157.651 67.4352 157.62 67.4045C157.589 67.3737 157.548 67.3564 157.504 67.3564Z" fill="#E6E6E6"/>
<path d="M158.743 72.3255C157.985 71.217 157.598 69.8971 157.637 68.555C157.637 68.524 157.627 68.4938 157.608 68.4694C157.589 68.445 157.562 68.4279 157.532 68.4211V68.1865H156.226V68.4179H156.208C156.19 68.4179 156.173 68.4214 156.156 68.4281C156.14 68.4349 156.125 68.4448 156.113 68.4573C156.101 68.4697 156.091 68.4845 156.084 68.5008C156.077 68.5171 156.074 68.5345 156.074 68.5521C156.074 68.5554 156.074 68.5586 156.074 68.5619C156.195 69.9314 155.825 71.2992 155.032 72.4217C154.986 72.4871 154.963 72.5657 154.965 72.6456L155.108 77.0644C155.111 77.163 155.153 77.2564 155.223 77.3252C155.294 77.394 155.388 77.4328 155.487 77.4336H158.441C158.541 77.4328 158.637 77.3931 158.707 77.3229C158.778 77.2527 158.819 77.1576 158.821 77.0579L158.876 72.7676C158.877 72.6101 158.831 72.4559 158.743 72.3255Z" fill="#E6E6E6"/>
<path d="M158.318 73.9502H155.499V75.3599H158.318V73.9502Z" fill="white"/>
<path d="M174.15 56.5615H171.542C171.451 56.5615 171.363 56.5979 171.298 56.6628C171.233 56.7276 171.197 56.8156 171.197 56.9073V58.0519C171.197 58.1436 171.233 58.2315 171.298 58.2964C171.363 58.3612 171.451 58.3976 171.542 58.3976H171.974V60.1127H173.718V58.3976H174.15C174.195 58.3976 174.24 58.3887 174.282 58.3713C174.324 58.3539 174.362 58.3285 174.394 58.2964C174.426 58.2643 174.452 58.2262 174.469 58.1842C174.486 58.1423 174.495 58.0973 174.495 58.0519V56.9073C174.495 56.8156 174.459 56.7276 174.394 56.6628C174.329 56.5979 174.241 56.5615 174.15 56.5615Z" fill="#E6E6E6"/>
<path d="M176.761 67.0372C175.164 64.7002 174.348 61.9177 174.429 59.0883C174.431 59.023 174.41 58.9592 174.369 58.9078C174.329 58.8564 174.272 58.8204 174.209 58.8061V58.3115H171.455V58.7992H171.417C171.38 58.7993 171.343 58.8066 171.309 58.8209C171.275 58.8351 171.244 58.856 171.217 58.8823C171.191 58.9086 171.171 58.9397 171.156 58.974C171.142 59.0083 171.135 59.0451 171.135 59.0822C171.135 59.0891 171.135 59.0959 171.136 59.1028C171.353 62.1274 170.62 64.8398 168.938 67.24C168.841 67.3779 168.792 67.5436 168.797 67.712L169.098 77.0275C169.106 77.2353 169.193 77.4323 169.342 77.5773C169.491 77.7223 169.69 77.8042 169.898 77.8059H176.126C176.336 77.8042 176.537 77.7204 176.687 77.5725C176.836 77.4245 176.922 77.2241 176.926 77.0138L177.042 67.9692C177.045 67.6372 176.947 67.3121 176.761 67.0372Z" fill="#E6E6E6"/>
<path d="M175.775 70.1309H170.354C170.274 70.1309 170.194 70.1482 170.121 70.1818C170.049 70.2153 169.984 70.2642 169.932 70.3251C169.879 70.386 169.841 70.4575 169.819 70.5347C169.797 70.6119 169.792 70.6929 169.804 70.7722L170.623 76.0982H175.327L176.322 70.7902C176.337 70.7098 176.334 70.627 176.314 70.5478C176.293 70.4687 176.256 70.395 176.203 70.332C176.151 70.2691 176.086 70.2184 176.012 70.1837C175.938 70.1489 175.857 70.1309 175.775 70.1309V70.1309Z" fill="white"/>
<path d="M175.573 22.4435H160.031C161.118 16.5676 160.868 9.47232 160.031 1.8418H175.573C174.758 9.47234 174.515 16.5676 175.573 22.4435Z" fill="#E6E6E6"/>
<path d="M167.896 15.3265C169.964 15.3265 171.641 13.6495 171.641 11.5807C171.641 9.512 169.964 7.83496 167.896 7.83496C165.828 7.83496 164.151 9.512 164.151 11.5807C164.151 13.6495 165.828 15.3265 167.896 15.3265Z" fill="white"/>
<path d="M161.342 49.7882H145.801C146.887 43.9124 146.637 36.817 145.801 29.1865H161.342C160.528 36.8171 160.285 43.9124 161.342 49.7882Z" fill="#E6E6E6"/>
<path d="M153.665 42.6712C155.733 42.6712 157.41 40.9942 157.41 38.9255C157.41 36.8567 155.733 35.1797 153.665 35.1797C151.597 35.1797 149.92 36.8567 149.92 38.9255C149.92 40.9942 151.597 42.6712 153.665 42.6712Z" fill="white"/>
<path d="M184.374 23.755H168.832C169.919 17.8792 169.669 10.7838 168.832 3.15332H184.374C183.559 10.7839 183.316 17.8792 184.374 23.755Z" fill="#E6E6E6"/>
<path d="M176.697 16.638C178.765 16.638 180.442 14.961 180.442 12.8923C180.442 10.8235 178.765 9.14648 176.697 9.14648C174.628 9.14648 172.952 10.8235 172.952 12.8923C172.952 14.961 174.628 16.638 176.697 16.638Z" fill="white"/>
<path d="M184.374 22.8185H168.832C169.919 16.9426 169.669 9.84732 168.832 2.2168H184.374C183.559 9.84734 183.316 16.9426 184.374 22.8185Z" fill="#E6E6E6"/>
<path d="M176.697 15.7015C178.765 15.7015 180.442 14.0245 180.442 11.9557C180.442 9.887 178.765 8.20996 176.697 8.20996C174.628 8.20996 172.952 9.887 172.952 11.9557C172.952 14.0245 174.628 15.7015 176.697 15.7015Z" fill="white"/>
<path d="M184.374 23.755H168.832C169.919 17.8792 169.669 10.7838 168.832 3.15332H184.374C183.559 10.7839 183.316 17.8792 184.374 23.755Z" fill="#E6E6E6"/>
<path d="M176.697 16.638C178.765 16.638 180.442 14.961 180.442 12.8923C180.442 10.8235 178.765 9.14648 176.697 9.14648C174.628 9.14648 172.952 10.8235 172.952 12.8923C172.952 14.961 174.628 16.638 176.697 16.638Z" fill="white"/>
<path d="M187.931 21.3203H137V26.939H187.931V21.3203Z" fill="#E6E6E6"/>
<path d="M187.931 49.2256H137V54.8442H187.931V49.2256Z" fill="#E6E6E6"/>
<path d="M187.931 77.1318H137V82.7505H187.931V77.1318Z" fill="#E6E6E6"/>
</g>
<g filter="url(#filter0_d_10602_963)">
<rect width="40" height="40" rx="2" transform="matrix(-1 0 0 1 52 68)" fill="white"/>
</g>
<mask id="mask0_10602_963" style="mask-type:alpha" maskUnits="userSpaceOnUse" x="24" y="80" width="16" height="16">
<path d="M24 87H36.17L30.58 81.41L32 80L40 88L32 96L30.59 94.59L36.17 89H24V87Z" fill="black"/>
</mask>
<g mask="url(#mask0_10602_963)">
<rect width="24" height="24" transform="matrix(-1 0 0 1 44 76)" fill="#686868"/>
</g>
<defs>
<filter id="filter0_d_10602_963" x="0" y="64" width="64" height="64" filterUnits="userSpaceOnUse" color-interpolation-filters="sRGB">
<feFlood flood-opacity="0" result="BackgroundImageFix"/>
<feColorMatrix in="SourceAlpha" type="matrix" values="0 0 0 0 0 0 0 0 0 0 0 0 0 0 0 0 0 0 127 0" result="hardAlpha"/>
<feOffset dy="8"/>
<feGaussianBlur stdDeviation="6"/>
<feColorMatrix type="matrix" values="0 0 0 0 0 0 0 0 0 0 0 0 0 0 0 0 0 0 0.1 0"/>
<feBlend mode="normal" in2="BackgroundImageFix" result="effect1_dropShadow_10602_963"/>
<feBlend mode="normal" in="SourceGraphic" in2="effect1_dropShadow_10602_963" result="shape"/>
</filter>
<clipPath id="clip0_10602_963">
<rect width="127" height="124" fill="white" transform="translate(137)"/>
</clipPath>
</defs>
</svg>
