<svg width="24" height="20" viewBox="0 0 24 20" fill="none" xmlns="http://www.w3.org/2000/svg">
<path d="M23.962 10.1854C24.0393 9.99839 23.9963 9.78324 23.853 9.64036L14.853 0.640361C14.6544 0.448502 14.3378 0.454033 14.146 0.652643C13.9589 0.846424 13.9589 1.1536 14.146 1.34733L22.293 9.49435H0.500016C0.223875 9.49439 0 9.71827 0 9.99441C0 10.2705 0.223875 10.4944 0.500016 10.4944H22.293L14.147 18.6404C13.9484 18.8323 13.9429 19.1488 14.1347 19.3474C14.3266 19.546 14.6431 19.5515 14.8417 19.3597C14.8459 19.3557 14.85 19.3516 14.854 19.3474L23.854 10.3474C23.9002 10.301 23.937 10.2459 23.962 10.1854Z" fill="#2196F3"/>
</svg>
