<svg width="22" height="13" viewBox="0 0 22 13" fill="none" xmlns="http://www.w3.org/2000/svg">
<path fill-rule="evenodd" clip-rule="evenodd" d="M18.9504 7.92761C19.6494 8.5836 20.3942 9.20062 21.0244 9.92307C21.3107 10.2349 21.5606 10.5784 21.7692 10.9469C21.8429 11.0471 21.8896 11.1645 21.9047 11.2879C21.9199 11.4114 21.9031 11.5366 21.8559 11.6517C21.8087 11.7667 21.7328 11.8677 21.6353 11.945C21.5379 12.0222 21.4222 12.0731 21.2994 12.0927H18.2114C17.8468 12.1206 17.4805 12.0665 17.1395 11.9345C16.7985 11.8025 16.4913 11.5958 16.2405 11.3296C15.8109 10.9131 15.4155 10.4702 15.003 10.0405C14.8395 9.85924 14.6527 9.7005 14.4473 9.56845C14.3692 9.50244 14.2767 9.45557 14.1773 9.43162C14.0779 9.40768 13.9742 9.4073 13.8746 9.43051C13.775 9.45371 13.6821 9.49988 13.6035 9.56531C13.5249 9.63073 13.4627 9.71361 13.4218 9.80736C13.2034 10.2326 13.0913 10.7043 13.0952 11.1823C13.0609 11.8773 12.8432 12.0601 12.1098 12.0921C10.5797 12.2082 9.0476 11.8936 7.68693 11.1841C6.52016 10.5163 5.50701 9.61031 4.71346 8.52515C3.16764 6.45423 1.85356 4.22008 0.794731 1.86272C0.548376 1.33678 0.725947 1.05548 1.33324 1.04516C2.34157 1.0274 3.34993 1.0274 4.36399 1.04516C4.54846 1.04551 4.72821 1.10345 4.87816 1.21088C5.02811 1.31831 5.14077 1.46989 5.20043 1.64445C5.73874 2.93011 6.42725 4.14761 7.25151 5.27158C7.45976 5.58558 7.72154 5.86054 8.02494 6.08396C8.085 6.14356 8.15978 6.18619 8.24167 6.2075C8.32356 6.22881 8.40963 6.22806 8.49113 6.2053C8.57263 6.18253 8.64663 6.1386 8.70562 6.07794C8.76462 6.01728 8.80655 5.94205 8.82703 5.85995C8.92847 5.61809 8.98847 5.36089 9.0046 5.09912C9.09919 4.21168 9.08189 3.31588 8.95306 2.43277C8.92824 2.17577 8.81653 1.93491 8.63632 1.75002C8.45611 1.56512 8.2182 1.44723 7.96192 1.41583C7.66974 1.36254 7.7098 1.25714 7.85303 1.09615C7.96349 0.949993 8.10774 0.832758 8.27335 0.75444C8.43896 0.676123 8.62104 0.639066 8.80409 0.646424H12.2989C12.405 0.653653 12.5086 0.681901 12.6037 0.729543C12.6987 0.777185 12.7834 0.843266 12.8527 0.92393C12.922 1.00459 12.9746 1.09824 13.0074 1.19941C13.0402 1.30058 13.0525 1.40726 13.0437 1.51325V5.21713C13.0358 5.40414 13.0771 5.58995 13.1636 5.75596C13.25 5.92196 13.3786 6.06233 13.5364 6.16302C13.672 6.18347 13.8107 6.16345 13.935 6.10546C14.0594 6.04748 14.1638 5.95412 14.2353 5.83705C15.0342 4.98038 15.6988 4.00759 16.2062 2.95183C16.4411 2.49636 16.6416 2.02255 16.8421 1.54989C16.8941 1.38585 17.0012 1.24484 17.1453 1.15084C17.2894 1.05684 17.4617 1.01568 17.6328 1.03429H20.99C21.0897 1.03175 21.1893 1.0377 21.288 1.05205C21.8552 1.14372 22.0098 1.37688 21.8379 1.90454C21.5162 2.71097 21.0632 3.4586 20.4973 4.11714C19.9416 4.85735 19.3401 5.57176 18.7843 6.31712C18.2744 6.99718 18.3145 7.3398 18.9504 7.93048V7.92761Z" fill="white"/>
</svg>
